<?xml version="1.0" encoding="UTF-8"?>
<svg width="125px" height="22px" viewBox="0 0 125 22" version="1.1" xmlns="http://www.w3.org/2000/svg" xmlns:xlink="http://www.w3.org/1999/xlink">
    <title>Group</title>
    <g id="New" stroke="none" stroke-width="1" fill="none" fill-rule="evenodd">
        <g id="Artboard" transform="translate(-29, -21)">
            <g id="Group" transform="translate(29, 21)">
                <path d="M94.9870144,0.519507387 C94.2865063,0.773338042 93.4767162,1.19637221 93.1483448,1.4499998 C89.7330724,4.05196708 89.8206556,9.53049563 93.3451575,11.6245985 C93.7173468,11.8572597 95.1185731,12.3860905 96.4320585,12.7879552 C100.175282,13.9725321 100.810379,14.5224816 100.350448,16.2567541 C100.087751,17.2511611 99.1026372,17.8222801 97.6139853,17.8222801 C96.409992,17.8222801 95.6219007,17.5684494 94.1113924,16.6798391 C93.0389052,16.0452624 92.2727229,15.9394658 91.7033007,16.3625508 C91.5281868,16.5108386 91.0027926,17.166534 90.5430727,17.8645683 L89.7330724,19.0914334 L90.1930025,19.5779252 C90.8497452,20.2548408 93.1262783,21.3124516 94.7902017,21.714367 C96.847803,22.2220284 99.7812364,22.0316554 101.401237,21.3124516 C103.962534,20.1913831 105.298086,18.2030261 105.473042,15.2839735 C105.670065,11.7089718 104.006299,9.89007213 99.2779613,8.57863067 C95.9283631,7.64788443 94.8775747,6.35761244 96.2786434,4.8769167 C96.7383634,4.36925539 97.1105001,4.19979805 97.9861746,4.0940522 C98.9712887,3.98830635 99.3434254,4.07313655 100.941517,4.77117085 C102.60523,5.51149334 102.802253,5.55378153 103.305791,5.27883216 C103.765721,5.02500151 105.298086,2.74052562 105.298086,2.27515249 C105.298086,1.95786417 103.196299,0.836795706 101.817139,0.434880247 C99.7812364,-0.178526913 96.6288712,-0.13644179 94.9870144,0.519507387 M27.8021269,0.223287014 L27.8021269,4.24223853 L34.1506225,4.24223853 L34.1506225,21.7988927 L39.4045645,21.7988927 L39.4045645,4.24223853 L45.7530601,4.24223853 L45.7530601,0.223287014 L27.8021269,0.223287014 L27.8021269,0.223287014 Z M58.0560058,4.60186581 C59.0411199,5.15186607 59.5883705,6.23064635 59.4789309,7.39400301 C59.281908,9.25544473 57.9684225,10.1650215 55.4508912,10.1650215 L53.8528522,10.1650215 L53.8528522,3.96728917 L55.6041487,4.0942045 C56.7206113,4.15766216 57.5962858,4.34803515 58.0560058,4.60186581 M48.3799785,0.223287014 L48.3799785,21.7988927 L53.8528522,21.7988927 L53.8528522,13.9724813 L54.7941485,13.9724813 C55.4290348,13.9724813 55.8668458,14.0993966 56.0857775,14.3320578 C56.2608914,14.5436003 57.1803313,16.0454147 58.1435364,17.6741445 C59.0848852,19.3029251 60.1356736,20.8893667 60.442136,21.206655 C61.0332045,21.7988927 61.0770224,21.7988927 63.9010162,21.7988927 C65.4771987,21.7988927 66.7687753,21.7566045 66.7687753,21.6931468 C66.7687753,21.6296891 65.4990551,19.5778744 63.9228726,17.1030255 C61.0988788,12.6187009 61.0988788,12.5975314 61.5805076,12.2802431 C62.7626446,11.4976324 63.5069705,10.6726828 64.07613,9.57273305 C64.6015242,8.53624095 64.6891074,8.13437626 64.6671985,6.56905338 C64.6452896,3.84037384 63.7258497,2.2962712 61.471068,1.23860963 C59.6321883,0.392541294 58.3405593,0.223287014 53.1961095,0.223287014 L48.3799785,0.223287014 L48.3799785,0.223287014 Z M68.3448002,7.98629146 L68.4106847,15.7704146 L69.0891262,17.1453645 C70.7749585,20.593197 73.8835584,22.1796386 78.4807575,21.9681469 C82.8369059,21.7566045 85.5954881,19.9375017 86.9746478,16.3415336 C87.4124588,15.2204651 87.4562242,14.6493461 87.5218984,7.66900314 L87.6092715,0.223287014 L82.0928426,0.223287014 L82.0928426,7.1825113 C82.0928426,14.4589731 82.0269582,14.9878039 81.0856094,16.2146183 C79.4221063,18.3933483 75.4376218,17.9914328 74.1681644,15.516584 C73.6646266,14.5224308 73.6646266,14.3532273 73.5987422,7.35171482 L73.5330679,0.223287014 L68.279126,0.223287014 L68.3448002,7.98629146 L68.3448002,7.98629146 Z M107.049014,0.223287014 L107.049014,4.24223853 L113.39751,4.24223853 L113.39751,21.7988927 L118.870384,21.7988927 L118.870384,4.24223853 L125,4.24223853 L125,0.223287014 L107.049014,0.223287014 Z" id="Combined-Shape" fill="#2B2C30"></path>
                <path d="M20.5779567,0.295984113 L20.5779567,7.46903535 L23.327292,7.46903535 C24.3478702,7.46903535 25.1751559,6.66967185 25.1751559,5.68374282 L25.1751559,0.295984113 L20.5779567,0.295984113 Z" id="Path" fill="#5EBFF3"></path>
                <path d="M21.7600411,10.5035301 C21.3879044,10.6727336 20.9719498,11.0534796 20.8187449,11.3495984 C20.6654874,11.6880562 20.5779042,13.5917861 20.5779042,16.8279239 L20.5779042,21.7987911 L25.1751034,21.7987911 L25.1751034,10.1648692 L23.8178526,10.1648692 C23.0297613,10.1648692 22.1540868,10.3131571 21.7600411,10.5035301" id="Path" fill="#2B2C30"></path>
                <path d="M0,0.223287014 L0,21.7988927 L4.81613095,21.7988927 L4.85989628,15.0723803 L4.92557056,8.36698667 L5.99826788,10.3765132 C9.98248966,17.9490939 10.770581,19.2394166 11.4492326,19.4509591 C12.3686725,19.7682474 13.2662034,19.7470779 14.0323857,19.366332 C14.5359235,19.1125013 15.0174998,18.3932975 16.1996368,16.0877029 L17.732054,13.1263114 L17.732054,9.65751248 C17.732054,6.75942637 17.6882887,6.16734098 17.4036826,6.06159513 C16.8563795,5.87101908 16.4185685,6.50559571 14.4483403,10.2284284 L12.5875517,13.7608881 L9.17248944,7.18246054 C7.31175336,3.56537371 5.62607863,0.519405855 5.45096475,0.413660005 C5.27585087,0.307863388 3.98422178,0.223287014 2.58320563,0.223287014 L0,0.223287014 Z" id="Path" fill="#2B2C30"></path>
            </g>
        </g>
    </g>
</svg>